<svg width="14" height="20" viewBox="0 0 14 20" fill="none" xmlns="http://www.w3.org/2000/svg">
    <path d="M13.259 0.0771821C13.149 -0.00113827 13.0074 -0.0194976 12.8799 0.0246821C12.844 0.0371821 9.26904 1.3505 9.26904 5.41718C9.26904 8.34469 10.2215 9.82301 10.7574 10.423L10.224 10.9563C10.1557 11.0246 10.1132 11.1138 10.104 11.2096L9.44486 17.8022C9.38818 18.363 9.57236 18.9247 9.95068 19.343C10.329 19.7613 10.8715 20.0005 11.4349 20.0005C12.5374 20.0005 13.4349 19.103 13.4349 18.0005V0.417182C13.4357 0.281323 13.3699 0.155502 13.259 0.0771821Z" fill="#F4F4F6"/>
    <path d="M7.10433 5.39668L6.34769 0.355C6.31769 0.15 6.14183 0 5.93601 0C5.93183 0 5.92683 0 5.92183 0C5.71015 0.00667969 5.53765 0.17082 5.52101 0.38168L5.15601 4.75918C5.13351 5.02918 4.65433 5.02918 4.63183 4.75918L4.26769 0.38168C4.24933 0.16582 4.06933 0 3.85269 0C3.63601 0 3.45519 0.16582 3.43769 0.38168L3.07269 4.75918C3.05019 5.02918 2.57101 5.02918 2.54851 4.75918L2.18433 0.38168C2.16683 0.17168 1.99433 0.0075 1.78265 0C1.77765 0 1.77347 0 1.76933 0C1.56351 0 1.38765 0.15 1.35765 0.355L0.601826 5.39668C0.379326 6.87418 1.18101 8.2875 2.53265 8.87668L1.88933 17.8934C1.85101 18.4359 2.04101 18.975 2.41183 19.3734C2.78183 19.7717 3.30601 20 3.85101 20H3.85433C4.39851 20 4.92351 19.7717 5.29433 19.3733C5.66515 18.975 5.85515 18.4358 5.81683 17.8933L5.17351 8.87668C6.52519 8.2875 7.32684 6.87418 7.10433 5.39668Z" fill="#F4F4F6"/>
</svg>