<svg onclick="window.location.href='food.html'" width="20" height="31" viewBox="0 0 20 31" fill="none" xmlns="http://www.w3.org/2000/svg">
                    <path d="M19.1694 0.116755C19.0033 -0.00151701 18.7893 -0.0292417 18.5968 0.0374745C18.5427 0.0563509 13.144 2.03961 13.144 8.18074C13.144 12.6016 14.5824 14.834 15.3916 15.7401L14.5862 16.5455C14.483 16.6486 14.4188 16.7833 14.405 16.928L13.4096 26.8834C13.324 27.7303 13.6021 28.5785 14.1734 29.2102C14.7448 29.842 15.564 30.2032 16.4147 30.2032C18.0796 30.2032 19.435 28.8478 19.435 27.1829V0.630193C19.4362 0.42503 19.3368 0.235028 19.1694 0.116755Z" fill="#F4F4F6"/>
                    <path d="M9.87519 8.14957L8.73258 0.536089C8.68728 0.226516 8.42171 0 8.1109 0C8.10459 0 8.09704 0 8.08949 0C7.76983 0.0100871 7.50933 0.257957 7.48421 0.576378L6.93302 7.18688C6.89904 7.59461 6.17542 7.59461 6.14145 7.18688L5.59155 0.576378C5.56383 0.250407 5.29201 0 4.96486 0C4.63765 0 4.36459 0.250407 4.33816 0.576378L3.78697 7.18688C3.75299 7.59461 3.02938 7.59461 2.9954 7.18688L2.44545 0.576378C2.41902 0.259255 2.15853 0.0113258 1.83887 0C1.83132 0 1.82501 0 1.81875 0C1.50794 0 1.24238 0.226516 1.19707 0.536089L0.0557005 8.14957C-0.280299 10.3808 0.930326 12.515 2.97145 13.4048L1.99997 27.0209C1.9421 27.8402 2.22902 28.6544 2.789 29.2559C3.34774 29.8574 4.13931 30.2022 4.96232 30.2022H4.96733C5.78911 30.2022 6.58191 29.8574 7.14189 29.2558C7.70187 28.6543 7.98879 27.8401 7.93093 27.0209L6.95944 13.4048C9.00063 12.515 10.2112 10.3808 9.87519 8.14957Z" fill="#F4F4F6"/>
                    </svg>