<svg width="15" height="15" viewBox="0 0 15 15" fill="none" xmlns="http://www.w3.org/2000/svg">
    <path d="M8.66998 14.8667H5.78809C5.66321 14.8667 5.56201 14.7655 5.56201 14.6406C5.56201 14.5158 5.66321 14.4146 5.78809 14.4146H8.66998C8.79487 14.4146 8.89606 14.5158 8.89606 14.6406C8.89606 14.7655 8.79487 14.8667 8.66998 14.8667Z" fill="#C4C4C4"/>
    <path d="M6.14963 13.9319H3.01465C2.88977 13.9319 2.78857 13.8307 2.78857 13.7058C2.78857 13.581 2.88977 13.4797 3.01465 13.4797H6.14963C6.27452 13.4797 6.37571 13.581 6.37571 13.7058C6.37571 13.8307 6.27449 13.9319 6.14963 13.9319Z" fill="#D6D8E0"/>
    <path d="M9.09408 8.48785C8.99364 8.48785 8.90198 8.42045 8.87545 8.31875L8.47743 6.7915C8.3907 6.45862 8.41168 6.10747 8.5366 5.80275C8.68427 5.44231 9.03265 4.98644 9.85362 4.8615C9.97658 4.84269 10.0923 4.92751 10.1111 5.05098C10.1299 5.17442 10.0451 5.28972 9.92163 5.3085C9.43058 5.38323 9.10536 5.6072 8.955 5.97417C8.86698 6.18892 8.85275 6.43866 8.915 6.67746L9.31302 8.20471C9.34449 8.32553 9.27208 8.449 9.15127 8.4805C9.1321 8.48547 9.11295 8.48785 9.09408 8.48785Z" fill="#51BEFF"/>
    <path d="M15 13.7516V14.8669H8.66978L1.49219 7.63237L5.5767 3.54785C4.7592 4.65685 4.99553 6.21861 6.10452 7.03642C6.86657 7.59831 7.84263 7.66221 8.64386 7.28752C9.0086 7.1169 9.33717 6.85556 9.59279 6.5086L9.63107 6.45675L11.2923 11.3099C11.2923 11.3099 15 10.9482 15 13.7516Z" fill="#51BEFF"/>
    <path d="M15 13.7515V14.8668H8.66978L1.49219 7.63224L2.35099 6.77344L4.15843 8.59534L4.47705 8.91608L4.72905 9.17019L5.04737 9.49123L9.16625 13.6427H14.9979C14.9994 13.6785 15 13.7147 15 13.7515Z" fill="#C4C4C4"/>
    <path d="M11.2923 11.3097H10.3352C10.0066 11.3097 9.71843 11.0915 9.6289 10.7753L8.6438 7.28731C9.00854 7.1167 9.33711 6.85535 9.59273 6.50839L9.63101 6.45654L11.2923 11.3097Z" fill="#C4C4C4"/>
    <path d="M2.35107 6.77335L3.93936 5.18506C4.3457 5.5917 4.59711 6.15328 4.59711 6.77335C4.59711 7.39672 4.34299 7.96072 3.93303 8.36796L2.35107 6.77335Z" fill="#FFBF00"/>
    <path d="M7.23026 11.6905C5.79149 8.51608 7.04126 7.46315 7.04126 7.46315C7.58084 7.58343 8.14604 7.52012 8.64402 7.28711L8.975 8.45941C6.75761 9.62056 7.22122 11.6517 7.23026 11.6905Z" fill="#FFBF00"/>
    <path d="M9.45031 8.00898C9.35813 8.00898 9.27158 7.95221 9.238 7.86067C9.19502 7.74344 9.25521 7.61355 9.37244 7.57056L10.2768 7.23898C10.394 7.19599 10.5239 7.25619 10.5669 7.37339C10.6099 7.49062 10.5497 7.62051 10.4324 7.6635L9.52811 7.99508C9.50243 8.00448 9.47614 8.00898 9.45031 8.00898Z" fill="#2E282A"/>
    <path d="M10.1041 9.86957C10.0119 9.86957 9.92539 9.81281 9.89181 9.72127C9.84882 9.60404 9.90902 9.47414 10.0263 9.43116L10.9306 9.09957C11.0478 9.05659 11.1777 9.11679 11.2207 9.23399C11.2637 9.35122 11.2035 9.48111 11.0862 9.52409L10.1819 9.85568C10.1563 9.86511 10.13 9.86957 10.1041 9.86957Z" fill="#2E282A"/>
    <path d="M10.431 10.8C10.3388 10.8 10.2523 10.7432 10.2187 10.6517C10.1757 10.5344 10.2359 10.4046 10.3532 10.3616L11.2575 10.03C11.3747 9.98703 11.5046 10.0472 11.5476 10.1644C11.5906 10.2816 11.5304 10.4115 11.4131 10.4545L10.5088 10.7861C10.4832 10.7955 10.4569 10.8 10.431 10.8Z" fill="#2E282A"/>
    <path d="M9.77721 8.93938C9.68503 8.93938 9.59849 8.88262 9.56491 8.79108C9.52192 8.67385 9.58212 8.54395 9.69935 8.50097L10.6037 8.16939C10.7209 8.12643 10.8508 8.1866 10.8938 8.3038C10.9368 8.42103 10.8766 8.55092 10.7593 8.5939L9.85501 8.92549C9.82933 8.93492 9.80304 8.93938 9.77721 8.93938Z" fill="#2E282A"/>
    <path d="M4.09992 3.77369H0.22608C0.101193 3.77369 0 3.67247 0 3.54761C0 3.42276 0.101193 3.32153 0.22608 3.32153H4.09992C4.22481 3.32153 4.326 3.42276 4.326 3.54761C4.326 3.67247 4.22478 3.77369 4.09992 3.77369Z" fill="#C4C4C4"/>
    <path d="M2.77358 4.70778H0.22608C0.101194 4.70778 0 4.60655 0 4.4817C0 4.35684 0.101194 4.25562 0.22608 4.25562H2.77358C2.89847 4.25562 2.99966 4.35684 2.99966 4.4817C2.99966 4.60655 2.89844 4.70778 2.77358 4.70778Z" fill="#D6D8E0"/>
    <path d="M14.3037 13.6426V13.9473C14.3037 14.0721 14.2024 14.1734 14.0776 14.1734C13.9528 14.1734 13.8516 14.0721 13.8516 13.9473V13.6426H14.3037Z" fill="#D6D8E0"/>
    <path d="M13.2185 13.6426V14.0378C13.2185 14.1626 13.1172 14.2638 12.9924 14.2638C12.8676 14.2638 12.7664 14.1626 12.7664 14.0378V13.6426H13.2185Z" fill="#D6D8E0"/>
    <path d="M10.9275 13.6426V14.3392C10.9275 14.464 10.8262 14.5653 10.7014 14.5653C10.5766 14.5653 10.4753 14.464 10.4753 14.3392V13.6426H10.9275Z" fill="#D6D8E0"/>
    <path d="M12.1333 13.6426V14.1885C12.1333 14.3133 12.0323 14.4146 11.9072 14.4146C11.7824 14.4146 11.6812 14.3133 11.6812 14.1885V13.6426H12.1333Z" fill="#D6D8E0"/>
    <path d="M5.04739 9.49096L4.75711 9.78125C4.7131 9.82526 4.65522 9.84756 4.59734 9.84756C4.53947 9.84756 4.48159 9.82526 4.43758 9.78125C4.34926 9.69292 4.34926 9.54974 4.43758 9.46142L4.72907 9.16992L5.04739 9.49096Z" fill="#D6D8E0"/>
    <path d="M4.47689 8.91595L4.03347 9.35937C3.98946 9.40338 3.93159 9.42568 3.87371 9.42568C3.81583 9.42568 3.75796 9.40338 3.71395 9.35937C3.62562 9.27104 3.62562 9.12786 3.71395 9.03954L4.15827 8.59521L4.47689 8.91595Z" fill="#D6D8E0"/>
</svg>