<svg viewBox="0 0 49 49" fill="none" xmlns="http://www.w3.org/2000/svg">
    <path
        d="M31.3906 13.0156C33.082 13.0156 34.4531 11.6445 34.4531 9.95312C34.4531 8.26175 33.082 6.89062 31.3906 6.89062C29.6993 6.89062 28.3281 8.26175 28.3281 9.95312C28.3281 11.6445 29.6993 13.0156 31.3906 13.0156Z"
        fill="#E8C8B3" />
    <path
        d="M26.2376 10.7188C27.5761 10.7188 28.8599 11.2505 29.8064 12.197L34.4531 16.8438L32.9219 19.9062L30.625 18.375L29.0938 22.9688H22.2031L25.2656 13.7812L21.4375 15.3125V12.25L24.3631 11.0797C24.9593 10.8413 25.5955 10.7187 26.2376 10.7188Z"
        fill="#16F4D0" />
    <path
        d="M36.75 27.975V28.1597C36.7499 28.7666 36.5576 29.358 36.2007 29.8488L33.8751 33.0472L30.625 37.5156L28.3281 35.9844L31.1715 31.2452L32.9219 28.3281H26.0312C25.629 28.3282 25.2308 28.2491 24.8591 28.0952C24.4875 27.9414 24.1499 27.7158 23.8655 27.4314C23.5811 27.147 23.3555 26.8093 23.2016 26.4377C23.0478 26.0661 22.9686 25.6678 22.9688 25.2656V22.9688H29.0938L32.9219 24.5L34.945 25.3096C35.4779 25.5226 35.9347 25.8903 36.2564 26.3654C36.5781 26.8405 36.7501 27.4012 36.75 27.975Z"
        fill="#E8C8B3" />
    <path
        d="M26.7969 28.3281L24.5 32.1562L23.2597 34.0167C23.0672 34.3058 22.8267 34.5599 22.5486 34.768L17.6429 38.4478L13.7812 41.3438L12.25 39.0469L19.9062 32.9219L21.2375 30.5255L23.7344 26.0312L26.7969 28.3281Z"
        fill="#E8C8B3" />
    <path
        d="M26.2553 38.3742C26.1895 38.5715 26.1859 38.7843 26.2448 38.9838C26.3037 39.1833 26.4224 39.3599 26.5848 39.4899L29.8592 42.1094H30.393C30.8606 42.1094 31.309 41.9236 31.6397 41.593C31.9703 41.2624 32.1561 40.8139 32.1561 40.3463C32.156 39.9983 32.053 39.658 31.86 39.3683L30.6248 37.5156L28.3279 35.9844C27.8425 36.2271 27.4095 36.5631 27.0539 36.9731C26.6983 37.3832 26.4269 37.8592 26.2553 38.3742Z"
        fill="#8B8B8B" />
    <path
        d="M13.7813 41.3438V43.6406L14.1902 45.2762C14.2325 45.4455 14.2357 45.6222 14.1995 45.7929C14.1632 45.9637 14.0886 46.1239 13.9812 46.2614C13.8738 46.399 13.7365 46.5103 13.5796 46.5868C13.4228 46.6633 13.2506 46.7031 13.0761 46.7031H11.4844L9.95319 44.4062L9.48539 42.0675C9.39982 41.6396 9.45736 41.1955 9.64912 40.8036C9.84088 40.4116 10.1562 40.0936 10.5465 39.8986L12.2501 39.0469L13.7813 41.3438Z"
        fill="#8B8B8B" />
    <path
        d="M21.4374 15.3125L16.078 17.8199C15.7842 17.9457 15.4557 17.9647 15.1493 17.8737C14.843 17.7826 14.5782 17.5872 14.4008 17.3213C14.2904 17.1555 14.2176 16.9677 14.1873 16.7708C14.157 16.5739 14.1701 16.3729 14.2256 16.1816C14.281 15.9903 14.3776 15.8134 14.5085 15.6633C14.6394 15.5132 14.8015 15.3935 14.9835 15.3125L21.4374 12.25V15.3125Z"
        fill="#E8C8B3" />
    <path
        d="M34.4837 16.8182L38.2813 13.5837C38.5968 13.3209 38.9992 13.1855 39.4094 13.2041C39.8197 13.2227 40.2081 13.394 40.4986 13.6843C40.6571 13.8429 40.7815 14.0322 40.8643 14.2406C40.947 14.449 40.9863 14.6722 40.9797 14.8963C40.9731 15.1205 40.9208 15.3409 40.826 15.5441C40.7311 15.7473 40.5958 15.929 40.4282 16.078L35.9693 20.0897C35.5592 20.4542 35.0253 20.6483 34.4768 20.6322C33.9284 20.6161 33.4068 20.391 33.0188 20.003C32.9906 19.9748 32.972 19.9384 32.9656 19.8991C32.9592 19.8597 32.9654 19.8193 32.9832 19.7836L34.4354 16.8792C34.4471 16.8558 34.4636 16.835 34.4837 16.8182Z"
        fill="#E8C8B3" />
    <path
        d="M26.7969 28.3281L24.5001 32.1562L21.4376 30.625L21.2375 30.5255L23.7344 26.0312L26.7969 28.3281Z"
        fill="#F0B400" />
    <path
        d="M34.0827 5.62199C34.0505 5.62726 34.0189 5.63357 33.987 5.64008C34.0479 4.97169 33.8874 4.3018 33.5302 3.73362C33.1729 3.16543 32.6387 2.73049 32.0099 2.49578C31.3811 2.26108 30.6926 2.23965 30.0504 2.43478C29.4083 2.62992 28.8481 3.03079 28.4562 3.57565C28.0643 4.12051 27.8624 4.77912 27.8816 5.45001C27.9009 6.1209 28.1402 6.76684 28.5627 7.28833C28.9852 7.80982 29.5675 8.17791 30.2198 8.3359C30.8721 8.49388 31.5583 8.433 32.1726 8.16262C32.1764 8.19468 32.1805 8.22684 32.1858 8.259C32.259 8.70734 32.4635 9.1239 32.7734 9.45601C33.0834 9.78812 33.4849 10.0209 33.9271 10.1248C34.3693 10.2287 34.8324 10.1992 35.2579 10.0399C35.6833 9.88068 36.052 9.59883 36.3172 9.23004C36.5825 8.86125 36.7324 8.42209 36.7481 7.96808C36.7638 7.51407 36.6445 7.06561 36.4053 6.67942C36.1661 6.29322 35.8177 5.98662 35.4043 5.7984C34.9908 5.61018 34.5308 5.54879 34.0825 5.62199H34.0827Z"
        fill="#533222" />
    <path d="M33.8751 33.0472L30.625 37.5156L28.3281 35.9843L31.1715 31.2451L33.8751 33.0472Z"
        fill="#51BEFF" />
    <path
        d="M17.6429 38.4478L13.7812 41.3438L12.25 39.0469L16.0781 35.9844L17.6094 38.2812L17.6429 38.4478Z"
        fill="#51BEFF" />
    <path
        d="M17.6094 26.7969H14.5469C14.3438 26.7969 14.1491 26.7162 14.0055 26.5726C13.8619 26.429 13.7812 26.2343 13.7812 26.0312C13.7812 25.8282 13.8619 25.6335 14.0055 25.4899C14.1491 25.3463 14.3438 25.2656 14.5469 25.2656H17.6094C17.8124 25.2656 18.0072 25.3463 18.1508 25.4899C18.2943 25.6335 18.375 25.8282 18.375 26.0312C18.375 26.2343 18.2943 26.429 18.1508 26.5726C18.0072 26.7162 17.8124 26.7969 17.6094 26.7969Z"
        fill="#AEDEE2" />
    <path
        d="M11.4844 26.7969H9.95312C9.75007 26.7969 9.55533 26.7162 9.41175 26.5726C9.26816 26.429 9.1875 26.2343 9.1875 26.0312C9.1875 25.8282 9.26816 25.6335 9.41175 25.4899C9.55533 25.3463 9.75007 25.2656 9.95312 25.2656H11.4844C11.6874 25.2656 11.8822 25.3463 12.0258 25.4899C12.1693 25.6335 12.25 25.8282 12.25 26.0312C12.25 26.2343 12.1693 26.429 12.0258 26.5726C11.8822 26.7162 11.6874 26.7969 11.4844 26.7969Z"
        fill="#AEDEE2" />
    <path
        d="M12.25 21.4375H7.65625C7.45319 21.4375 7.25845 21.3568 7.11487 21.2133C6.97129 21.0697 6.89062 20.8749 6.89062 20.6719C6.89062 20.4688 6.97129 20.2741 7.11487 20.1305C7.25845 19.9869 7.45319 19.9062 7.65625 19.9062H12.25C12.4531 19.9062 12.6478 19.9869 12.7914 20.1305C12.935 20.2741 13.0156 20.4688 13.0156 20.6719C13.0156 20.8749 12.935 21.0697 12.7914 21.2133C12.6478 21.3568 12.4531 21.4375 12.25 21.4375Z"
        fill="#AEDEE2" />
    <path
        d="M4.59375 21.4375H3.0625C2.85944 21.4375 2.6647 21.3568 2.52112 21.2133C2.37754 21.0697 2.29688 20.8749 2.29688 20.6719C2.29688 20.4688 2.37754 20.2741 2.52112 20.1305C2.6647 19.9869 2.85944 19.9062 3.0625 19.9062H4.59375C4.79681 19.9062 4.99155 19.9869 5.13513 20.1305C5.27871 20.2741 5.35938 20.4688 5.35938 20.6719C5.35938 20.8749 5.27871 21.0697 5.13513 21.2133C4.99155 21.3568 4.79681 21.4375 4.59375 21.4375Z"
        fill="#AEDEE2" />
    <path
        d="M13.7812 31.3906H9.1875C8.98444 31.3906 8.7897 31.31 8.64612 31.1664C8.50254 31.0228 8.42188 30.8281 8.42188 30.625C8.42188 30.4219 8.50254 30.2272 8.64612 30.0836C8.7897 29.94 8.98444 29.8594 9.1875 29.8594H13.7812C13.9843 29.8594 14.179 29.94 14.3226 30.0836C14.4662 30.2272 14.5469 30.4219 14.5469 30.625C14.5469 30.8281 14.4662 31.0228 14.3226 31.1664C14.179 31.31 13.9843 31.3906 13.7812 31.3906Z"
        fill="#AEDEE2" />
    <path
        d="M6.125 31.3906H4.59375C4.39069 31.3906 4.19595 31.31 4.05237 31.1664C3.90879 31.0228 3.82812 30.8281 3.82812 30.625C3.82812 30.4219 3.90879 30.2272 4.05237 30.0836C4.19595 29.94 4.39069 29.8594 4.59375 29.8594H6.125C6.32806 29.8594 6.5228 29.94 6.66638 30.0836C6.80996 30.2272 6.89062 30.4219 6.89062 30.625C6.89062 30.8281 6.80996 31.0228 6.66638 31.1664C6.5228 31.31 6.32806 31.3906 6.125 31.3906Z"
        fill="#AEDEE2" />
    <path
        d="M32.9219 24.5L31.3906 28.3281H26.0312C25.629 28.3282 25.2308 28.2491 24.8591 28.0952C24.4875 27.9414 24.1499 27.7158 23.8655 27.4314C23.5811 27.147 23.3555 26.8093 23.2016 26.4377C23.0478 26.0661 22.9686 25.6678 22.9688 25.2656V22.9688H29.0938L32.9219 24.5Z"
        fill="#FFBF00" />
</svg>