<svg onclick="window.location.href='statistics.html'" width="30" height="30" viewBox="0 0 30 30"
                    fill="none" xmlns="http://www.w3.org/2000/svg">
                    <path
                        d="M4.45312 14.0625C5.1622 14.0625 5.80399 13.778 6.27823 13.3212L8.87993 14.6219C8.86688 14.7279 8.84766 14.832 8.84766 14.9414C8.84766 16.3953 10.0305 17.5781 11.4844 17.5781C12.9382 17.5781 14.1211 16.3953 14.1211 14.9414C14.1211 14.5356 14.0213 14.1557 13.8567 13.8119L17.3861 10.2825C17.7299 10.4471 18.1098 10.5469 18.5156 10.5469C19.9695 10.5469 21.1523 9.36401 21.1523 7.91016C21.1523 7.63641 21.0986 7.37755 21.0207 7.12921L24.0873 4.82986C24.5057 5.10933 25.0072 5.27344 25.5469 5.27344C27.0007 5.27344 28.1836 4.09058 28.1836 2.63672C28.1836 1.18286 27.0007 0 25.5469 0C24.093 0 22.9102 1.18286 22.9102 2.63672C22.9102 2.91046 22.9639 3.16933 23.0418 3.41766L19.9752 5.71701C19.5568 5.43755 19.0553 5.27344 18.5156 5.27344C17.0618 5.27344 15.8789 6.4563 15.8789 7.91016C15.8789 8.31596 15.9787 8.69591 16.1433 9.03969L12.6139 12.569C12.2701 12.4045 11.8902 12.3047 11.4844 12.3047C10.7753 12.3047 10.1335 12.5892 9.65927 13.046L7.05757 11.7453C7.07062 11.6393 7.08984 11.5352 7.08984 11.4258C7.08984 9.97192 5.90698 8.78906 4.45312 8.78906C2.99927 8.78906 1.81641 9.97192 1.81641 11.4258C1.81641 12.8796 2.99927 14.0625 4.45312 14.0625Z"
                        fill="#F4F4F6" />
                    <path
                        d="M29.1211 28.2422H28.1836V9.66797C28.1836 9.18228 27.7904 8.78906 27.3047 8.78906H23.7891C23.3034 8.78906 22.9102 9.18228 22.9102 9.66797V28.2422H21.1523V14.9414C21.1523 14.4557 20.7591 14.0625 20.2734 14.0625H16.7578C16.2721 14.0625 15.8789 14.4557 15.8789 14.9414V28.2422H14.1211V21.9727C14.1211 21.487 13.7279 21.0938 13.2422 21.0938H9.72656C9.24088 21.0938 8.84766 21.487 8.84766 21.9727V28.2422H7.08984V18.457C7.08984 17.9713 6.69662 17.5781 6.21094 17.5781H2.69531C2.20963 17.5781 1.81641 17.9713 1.81641 18.457V28.2422H0.878906C0.393219 28.2422 0 28.6354 0 29.1211C0 29.6068 0.393219 30 0.878906 30H29.1211C29.6068 30 30 29.6068 30 29.1211C30 28.6354 29.6068 28.2422 29.1211 28.2422Z"
                        fill="#F4F4F6" />
                </svg>